<mxfile host="app.diagrams.net" modified="2023-09-06T23:21:03.121Z" agent="Mozilla/5.0 (Windows NT 10.0; Win64; x64) AppleWebKit/537.36 (KHTML, like Gecko) Chrome/116.0.0.0 Safari/537.36 Edg/116.0.1938.62" etag="4Oy91RCbZwr8x5VvAuIT" version="21.7.2" type="device">
  <diagram name="Página-1" id="KEHe7mKojPdpBiEBlzjz">
    <mxGraphModel dx="2261" dy="764" grid="1" gridSize="10" guides="1" tooltips="1" connect="1" arrows="1" fold="1" page="1" pageScale="1" pageWidth="827" pageHeight="1169" math="0" shadow="0">
      <root>
        <mxCell id="0" />
        <mxCell id="1" parent="0" />
        <mxCell id="k299R52jG6YqTTFSRUJ7-33" value="" style="rounded=0;whiteSpace=wrap;html=1;" vertex="1" parent="1">
          <mxGeometry x="407" y="240" width="200" height="270" as="geometry" />
        </mxCell>
        <mxCell id="k299R52jG6YqTTFSRUJ7-1" value="Cliente" style="shape=umlActor;verticalLabelPosition=bottom;verticalAlign=top;html=1;outlineConnect=0;" vertex="1" parent="1">
          <mxGeometry x="-13" y="415" width="40" height="70" as="geometry" />
        </mxCell>
        <mxCell id="k299R52jG6YqTTFSRUJ7-7" value="" style="rounded=0;whiteSpace=wrap;html=1;" vertex="1" parent="1">
          <mxGeometry x="127" y="285" width="220" height="310" as="geometry" />
        </mxCell>
        <mxCell id="k299R52jG6YqTTFSRUJ7-9" value="Login Cliente" style="ellipse;whiteSpace=wrap;html=1;" vertex="1" parent="1">
          <mxGeometry x="177" y="335" width="120" height="80" as="geometry" />
        </mxCell>
        <mxCell id="k299R52jG6YqTTFSRUJ7-10" value="Ver Planos&amp;nbsp;" style="ellipse;whiteSpace=wrap;html=1;" vertex="1" parent="1">
          <mxGeometry x="177" y="455" width="120" height="80" as="geometry" />
        </mxCell>
        <mxCell id="k299R52jG6YqTTFSRUJ7-11" value="" style="endArrow=classic;html=1;rounded=0;" edge="1" parent="1" source="k299R52jG6YqTTFSRUJ7-1" target="k299R52jG6YqTTFSRUJ7-9">
          <mxGeometry width="50" height="50" relative="1" as="geometry">
            <mxPoint x="47" y="475" as="sourcePoint" />
            <mxPoint x="97" y="425" as="targetPoint" />
          </mxGeometry>
        </mxCell>
        <mxCell id="k299R52jG6YqTTFSRUJ7-12" value="" style="endArrow=classic;html=1;rounded=0;" edge="1" parent="1" source="k299R52jG6YqTTFSRUJ7-1" target="k299R52jG6YqTTFSRUJ7-10">
          <mxGeometry width="50" height="50" relative="1" as="geometry">
            <mxPoint x="57" y="495" as="sourcePoint" />
            <mxPoint x="107" y="445" as="targetPoint" />
          </mxGeometry>
        </mxCell>
        <mxCell id="k299R52jG6YqTTFSRUJ7-14" value="&amp;lt;&amp;lt;extend&amp;gt;&amp;gt;" style="html=1;verticalAlign=bottom;labelBackgroundColor=none;endArrow=open;endFill=0;dashed=1;rounded=0;" edge="1" parent="1" source="k299R52jG6YqTTFSRUJ7-16" target="k299R52jG6YqTTFSRUJ7-9">
          <mxGeometry width="160" relative="1" as="geometry">
            <mxPoint x="487" y="375" as="sourcePoint" />
            <mxPoint x="547" y="375" as="targetPoint" />
          </mxGeometry>
        </mxCell>
        <mxCell id="k299R52jG6YqTTFSRUJ7-16" value="Cadastrar Cliente" style="ellipse;whiteSpace=wrap;html=1;" vertex="1" parent="1">
          <mxGeometry x="447" y="255" width="120" height="80" as="geometry" />
        </mxCell>
        <mxCell id="k299R52jG6YqTTFSRUJ7-17" value="Área do beneficiário" style="ellipse;whiteSpace=wrap;html=1;" vertex="1" parent="1">
          <mxGeometry x="447" y="385" width="120" height="80" as="geometry" />
        </mxCell>
        <mxCell id="k299R52jG6YqTTFSRUJ7-18" value="Cadastrar Animal" style="ellipse;whiteSpace=wrap;html=1;" vertex="1" parent="1">
          <mxGeometry x="700" y="305" width="120" height="80" as="geometry" />
        </mxCell>
        <mxCell id="k299R52jG6YqTTFSRUJ7-21" value="&amp;lt;&amp;lt;include&amp;gt;&amp;gt;" style="html=1;verticalAlign=bottom;labelBackgroundColor=none;endArrow=open;endFill=0;dashed=1;rounded=0;" edge="1" parent="1" source="k299R52jG6YqTTFSRUJ7-16" target="k299R52jG6YqTTFSRUJ7-18">
          <mxGeometry width="160" relative="1" as="geometry">
            <mxPoint x="597" y="295" as="sourcePoint" />
            <mxPoint x="757" y="295" as="targetPoint" />
          </mxGeometry>
        </mxCell>
        <mxCell id="k299R52jG6YqTTFSRUJ7-22" value="&amp;lt;&amp;lt;extend&amp;gt;&amp;gt;" style="html=1;verticalAlign=bottom;labelBackgroundColor=none;endArrow=open;endFill=0;dashed=1;rounded=0;" edge="1" parent="1" source="k299R52jG6YqTTFSRUJ7-17" target="k299R52jG6YqTTFSRUJ7-9">
          <mxGeometry width="160" relative="1" as="geometry">
            <mxPoint x="397" y="485" as="sourcePoint" />
            <mxPoint x="557" y="485" as="targetPoint" />
          </mxGeometry>
        </mxCell>
        <mxCell id="k299R52jG6YqTTFSRUJ7-23" value="&amp;lt;&amp;lt;extend&amp;gt;&amp;gt;" style="html=1;verticalAlign=bottom;labelBackgroundColor=none;endArrow=open;endFill=0;dashed=1;rounded=0;" edge="1" parent="1" source="k299R52jG6YqTTFSRUJ7-18" target="k299R52jG6YqTTFSRUJ7-17">
          <mxGeometry width="160" relative="1" as="geometry">
            <mxPoint x="637" y="475" as="sourcePoint" />
            <mxPoint x="797" y="475" as="targetPoint" />
          </mxGeometry>
        </mxCell>
        <mxCell id="k299R52jG6YqTTFSRUJ7-24" value="&amp;lt;&amp;lt;extend&amp;gt;&amp;gt;" style="html=1;verticalAlign=bottom;labelBackgroundColor=none;endArrow=open;endFill=0;dashed=1;rounded=0;" edge="1" parent="1" source="k299R52jG6YqTTFSRUJ7-25" target="k299R52jG6YqTTFSRUJ7-10">
          <mxGeometry width="160" relative="1" as="geometry">
            <mxPoint x="377" y="575" as="sourcePoint" />
            <mxPoint x="537" y="575" as="targetPoint" />
          </mxGeometry>
        </mxCell>
        <mxCell id="k299R52jG6YqTTFSRUJ7-25" value="Assinar Plano" style="ellipse;whiteSpace=wrap;html=1;" vertex="1" parent="1">
          <mxGeometry x="177" y="625" width="120" height="80" as="geometry" />
        </mxCell>
        <mxCell id="k299R52jG6YqTTFSRUJ7-26" value="&amp;lt;&amp;lt;extend&amp;gt;&amp;gt;" style="html=1;verticalAlign=bottom;labelBackgroundColor=none;endArrow=open;endFill=0;dashed=1;rounded=0;" edge="1" parent="1" source="k299R52jG6YqTTFSRUJ7-27" target="k299R52jG6YqTTFSRUJ7-17">
          <mxGeometry width="160" relative="1" as="geometry">
            <mxPoint x="655.64" y="557.62" as="sourcePoint" />
            <mxPoint x="596.9997196555192" y="454.9995093971585" as="targetPoint" />
          </mxGeometry>
        </mxCell>
        <mxCell id="k299R52jG6YqTTFSRUJ7-27" value="Alterar Plano" style="ellipse;whiteSpace=wrap;html=1;" vertex="1" parent="1">
          <mxGeometry x="447" y="525" width="120" height="80" as="geometry" />
        </mxCell>
        <mxCell id="k299R52jG6YqTTFSRUJ7-28" value="&amp;lt;&amp;lt;include&amp;gt;&amp;gt;" style="html=1;verticalAlign=bottom;labelBackgroundColor=none;endArrow=open;endFill=0;dashed=1;rounded=0;" edge="1" parent="1" source="k299R52jG6YqTTFSRUJ7-29" target="k299R52jG6YqTTFSRUJ7-25">
          <mxGeometry width="160" relative="1" as="geometry">
            <mxPoint x="390" y="600" as="sourcePoint" />
            <mxPoint x="490" y="590" as="targetPoint" />
          </mxGeometry>
        </mxCell>
        <mxCell id="k299R52jG6YqTTFSRUJ7-29" value="Contato com a Agência" style="ellipse;whiteSpace=wrap;html=1;" vertex="1" parent="1">
          <mxGeometry x="390" y="660" width="120" height="80" as="geometry" />
        </mxCell>
        <mxCell id="k299R52jG6YqTTFSRUJ7-30" value="&amp;lt;&amp;lt;include&amp;gt;&amp;gt;" style="html=1;verticalAlign=bottom;labelBackgroundColor=none;endArrow=open;endFill=0;dashed=1;rounded=0;exitX=1;exitY=0;exitDx=0;exitDy=0;" edge="1" parent="1" source="k299R52jG6YqTTFSRUJ7-29" target="k299R52jG6YqTTFSRUJ7-27">
          <mxGeometry width="160" relative="1" as="geometry">
            <mxPoint x="448.26819947640047" y="707.5973043690888" as="sourcePoint" />
            <mxPoint x="657" y="735" as="targetPoint" />
          </mxGeometry>
        </mxCell>
        <mxCell id="k299R52jG6YqTTFSRUJ7-31" value="&amp;lt;&amp;lt;extend&amp;gt;&amp;gt;" style="html=1;verticalAlign=bottom;labelBackgroundColor=none;endArrow=open;endFill=0;dashed=1;rounded=0;" edge="1" parent="1" source="k299R52jG6YqTTFSRUJ7-32" target="k299R52jG6YqTTFSRUJ7-17">
          <mxGeometry width="160" relative="1" as="geometry">
            <mxPoint x="687" y="525" as="sourcePoint" />
            <mxPoint x="717" y="505" as="targetPoint" />
          </mxGeometry>
        </mxCell>
        <mxCell id="k299R52jG6YqTTFSRUJ7-32" value="Agendar Consultas" style="ellipse;whiteSpace=wrap;html=1;" vertex="1" parent="1">
          <mxGeometry x="700" y="430" width="120" height="80" as="geometry" />
        </mxCell>
        <mxCell id="k299R52jG6YqTTFSRUJ7-34" value="&lt;b&gt;&lt;font style=&quot;font-size: 20px;&quot;&gt;Tela Inicial&lt;/font&gt;&lt;/b&gt;" style="text;html=1;strokeColor=none;fillColor=none;align=center;verticalAlign=middle;whiteSpace=wrap;rounded=0;" vertex="1" parent="1">
          <mxGeometry x="192" y="240" width="90" height="30" as="geometry" />
        </mxCell>
        <mxCell id="k299R52jG6YqTTFSRUJ7-35" value="&lt;font style=&quot;font-size: 17px;&quot;&gt;&lt;b&gt;Tela Do Cliente&lt;/b&gt;&lt;/font&gt;" style="text;html=1;strokeColor=none;fillColor=none;align=center;verticalAlign=middle;whiteSpace=wrap;rounded=0;" vertex="1" parent="1">
          <mxGeometry x="477" y="190" width="60" height="30" as="geometry" />
        </mxCell>
      </root>
    </mxGraphModel>
  </diagram>
</mxfile>
